<svg width="147" height="48" viewBox="0 0 147 48" fill="none" xmlns="http://www.w3.org/2000/svg">
<g filter="url(#filter0_d_1167_213)">
<path d="M34.5464 16.3168L35.0481 16.1052L35.2081 15.4279L35.3751 14.7535L36.7734 14.158C37.7216 13.7579 38.1852 13.5798 38.1998 13.614C38.2191 13.6581 38.6891 18.0587 38.6962 18.2651C38.6974 18.3225 38.8228 18.2872 39.2945 18.0883L39.8905 17.8366L40.3248 15.1681L40.7614 12.5042L42.3549 11.8031C44.0772 11.0476 44.1048 11.0296 44.2349 10.6498C44.3251 10.397 44.3193 10.2196 44.2114 9.96847C44.0778 9.65883 43.7801 9.43035 43.4461 9.3915C43.1917 9.35961 43.1917 9.35962 41.6024 10.0299L40.0183 10.6985L37.7316 9.13753L35.4501 7.57422L34.864 7.82123C34.3278 8.04738 34.2821 8.07811 34.3389 8.14132C34.3753 8.18423 35.0703 8.99428 35.8849 9.94526C36.6995 10.8962 37.3758 11.7028 37.3887 11.7324C37.4098 11.7817 37.1033 11.9284 36.0309 12.3807L34.6454 12.9652L33.9955 12.6004L33.3503 12.234L32.8639 12.4393C32.422 12.626 32.3816 12.6544 32.4378 12.7176C32.4742 12.7605 32.7906 13.1554 33.1487 13.5909L33.7939 14.3928L33.917 15.3861C33.9826 15.9335 34.0377 16.4154 34.0424 16.4536C34.0436 16.5116 34.159 16.4803 34.5464 16.3168Z" fill="#0287A8"/>
<path d="M33.0293 15.3026L31.9803 15.8651C28.13 17.9642 25.2818 19.9415 24.0101 21.4259C23.8695 21.5941 23.7464 21.7507 23.6409 21.9014C23.4358 21.6173 23.1721 21.4027 22.8029 21.4897C22.5216 21.5535 22.3223 21.7274 22.1582 21.9478C23.1838 20.359 25.8737 18.2367 29.853 15.894C30.5914 15.4591 32.4433 14.4154 32.5956 14.3516C32.6308 14.3516 32.7304 14.5314 32.8359 14.8155L33.0293 15.3026Z" fill="#0287A8"/>
<path d="M22.8026 0.0116242C21.8357 0.139194 20.9507 0.301555 20.0658 0.730652C19.3977 1.05537 18.7414 1.49607 18.2374 2.04694C17.8271 2.49343 17.4462 2.96892 17.1708 3.51399C16.7312 4.38378 16.5613 5.28836 16.5613 6.25093C16.5613 6.55826 16.5378 6.86558 16.5964 7.16711C16.7547 8.03111 17.1122 8.85451 17.4638 9.64892C17.9854 10.8319 18.6007 11.9684 19.2219 13.0991C20.0072 14.5256 20.857 15.9173 21.7067 17.3089C21.9763 17.7496 22.2928 18.5904 22.9433 18.5266C23.5528 18.4629 23.7403 17.912 24.045 17.4713C24.7835 16.3985 25.4691 15.2678 26.1431 14.1487C26.9577 12.7918 27.7664 11.4291 28.4462 10.0027C28.8447 9.16763 29.2726 8.28045 29.4249 7.35847C29.466 7.10333 29.4484 6.84239 29.4601 6.58145C29.507 5.5377 29.2784 4.48815 28.7803 3.56037C28.4814 3.00951 28.1063 2.51662 27.6668 2.06433C27.1276 1.51346 26.4771 1.06117 25.7797 0.724854C25.0882 0.394333 24.3674 0.162388 23.6055 0.0522144C23.3418 0.02902 23.0664 -0.0231675 22.8026 0.0116242Z" fill="#1D4ED8"/>
<path d="M10.3271 6.4714C9.82307 6.53518 9.33079 6.54098 8.83851 6.68015C7.36754 7.09185 6.08411 7.95584 5.14644 9.15036C4.59556 9.85779 4.28495 10.7334 4.13258 11.6032C3.73407 13.8531 4.36114 16.2711 6.17201 17.7903C6.71703 18.2484 7.39684 18.6891 8.07665 18.9211C9.18428 19.298 10.3915 19.3618 11.546 19.4429C13.2866 19.5589 15.0447 19.5705 16.7911 19.5125C17.6819 19.4835 18.5727 19.4951 19.4635 19.4429C19.7624 19.4255 20.0788 19.4777 20.3777 19.4197C20.8876 19.3154 21.1982 18.8109 21.0224 18.318C20.9052 17.9875 20.6707 17.6744 20.5066 17.3612C20.1023 16.6074 19.692 15.8536 19.276 15.1056C18.2914 13.337 17.2717 11.5452 16.0644 9.91577C15.3963 9.01699 14.7341 8.04862 13.7437 7.46876C12.8939 6.97008 12.0325 6.60477 11.042 6.51199C10.8018 6.48299 10.5556 6.43661 10.3271 6.4714Z" fill="#0287A8"/>
<path d="M14.13 20.4749C13.8487 20.5097 13.5498 20.4807 13.2685 20.4865C12.8524 20.4923 12.4363 20.5155 12.0202 20.5329C11.2818 20.5677 10.5434 20.6315 9.81082 20.7359C9.21892 20.817 8.61529 20.8924 8.05269 21.1012C7.40218 21.3389 6.78684 21.739 6.24768 22.1623C5.83745 22.4813 5.47996 22.8756 5.17522 23.2989C4.13206 24.7659 3.78629 26.6505 4.1262 28.4016C4.25513 29.0685 4.44852 29.7643 4.78843 30.3616C5.04043 30.7965 5.40377 31.1908 5.76126 31.5445C7.15018 32.9304 9.16031 33.7422 11.1411 33.5044C12.2136 33.3768 13.3329 32.9246 14.1768 32.2577C15.1204 31.5155 15.8295 30.4427 16.4917 29.457C17.5232 27.9204 18.4784 26.3315 19.3692 24.7137C19.8204 23.8903 20.2658 23.0611 20.723 22.2377C20.9515 21.8202 21.2211 21.4143 20.9222 20.9562C20.5823 20.4285 19.715 20.5619 19.1641 20.5619C18.4022 20.5619 17.6404 20.4923 16.8785 20.4865C16.5445 20.4807 16.2046 20.4981 15.8705 20.4807C15.4837 20.4633 15.0911 20.4633 14.7043 20.4691C14.5168 20.4749 14.3234 20.4517 14.13 20.4749Z" fill="#00C3C7"/>
<path d="M41.515 29.5033C40.3136 32.7795 36.0062 34.5481 32.8592 32.9129C32.0797 32.507 31.4175 32.0431 30.8549 31.3589C30.7201 31.1965 30.4095 30.9356 30.3802 30.721C30.2571 30.663 30.1809 30.5123 30.1048 30.4079C29.9114 30.147 29.718 29.886 29.5421 29.6135C28.9151 28.6625 28.3115 27.7057 27.7254 26.7374C27.4793 26.3315 27.239 25.9198 27.0046 25.5139C26.8522 25.2587 26.7057 25.0036 26.565 24.7543C26.1783 24.07 25.8032 23.38 25.4516 22.6841C25.2113 22.2087 24.7014 21.6404 24.9417 21.0837C25.2171 20.4343 25.9204 20.6256 26.4771 20.5735C27.2156 20.5039 27.9657 20.5329 28.7041 20.5155C29.5421 20.4923 30.3861 20.4575 31.23 20.4749C32.7302 20.5097 34.2305 20.5097 35.7249 20.6836C36.4516 20.7706 37.19 20.8576 37.8816 21.0953C38.2742 21.2345 38.6375 21.449 38.9892 21.6694C39.5635 22.0231 40.0851 22.4464 40.5129 22.9741C40.9641 23.5191 41.304 24.1396 41.5385 24.8006L41.6967 25.3109L41.7143 25.3631L41.7201 25.3863C42.0659 26.7374 41.9956 28.1986 41.515 29.5033Z" fill="#FB7D5F"/>
<path d="M29.4547 33.4118C29.4782 34.3395 29.3258 35.2093 28.9625 36.0733C28.7456 36.5836 28.4233 37.0475 28.0775 37.4824C27.638 38.0275 27.093 38.4971 26.4952 38.8741C25.7509 39.3437 24.9422 39.6743 24.0807 39.8714C21.5431 40.4513 18.6598 39.0074 17.3588 36.8329C16.6907 35.7138 16.4446 34.3685 16.5676 33.0812C16.6555 32.1419 17.0892 31.2141 17.4643 30.3617C18.1617 28.7961 18.9763 27.2768 19.8495 25.8098C20.4765 24.7544 21.0978 23.6991 21.7307 22.6495C21.8596 22.435 21.9768 22.203 22.1292 21.9943C22.1351 21.9769 22.1468 21.9653 22.1585 21.9479C22.3226 21.7276 22.5218 21.5536 22.8031 21.4898C23.1724 21.4028 23.4361 21.6174 23.6412 21.9015C23.8053 22.1161 23.9342 22.3712 24.0573 22.5568C24.5085 23.2236 24.9363 23.9078 25.3583 24.5979C25.5341 24.8762 25.7041 25.1545 25.874 25.4387C26.1026 25.8098 26.3253 26.1809 26.5538 26.5462C27.2864 27.7349 27.9662 28.9816 28.5581 30.2457C28.9156 31.0111 29.2848 31.8171 29.4196 32.6521C29.4606 32.9073 29.4489 33.1566 29.4547 33.4118Z" fill="#0287A8"/>
<path d="M54.136 12.632H59.896V13.992H54.136V12.632ZM54.28 17.608H60.808V19H52.68V7.8H60.584V9.192H54.28V17.608ZM67.7028 10.44C68.3961 10.44 69.0041 10.5733 69.5268 10.84C70.0601 11.1067 70.4761 11.512 70.7748 12.056C71.0734 12.6 71.2228 13.288 71.2228 14.12V19H69.6868V14.296C69.6868 13.4747 69.4841 12.856 69.0788 12.44C68.6841 12.024 68.1241 11.816 67.3988 11.816C66.8548 11.816 66.3801 11.9227 65.9748 12.136C65.5694 12.3493 65.2548 12.664 65.0308 13.08C64.8174 13.496 64.7108 14.0133 64.7108 14.632V19H63.1748V10.52H64.6468V12.808L64.4068 12.2C64.6841 11.6453 65.1108 11.2133 65.6868 10.904C66.2628 10.5947 66.9348 10.44 67.7028 10.44ZM74.0654 19V10.52H75.6014V19H74.0654ZM74.8334 8.888C74.5347 8.888 74.284 8.792 74.0814 8.6C73.8894 8.408 73.7934 8.17333 73.7934 7.896C73.7934 7.608 73.8894 7.368 74.0814 7.176C74.284 6.984 74.5347 6.888 74.8334 6.888C75.132 6.888 75.3774 6.984 75.5694 7.176C75.772 7.35733 75.8734 7.58667 75.8734 7.864C75.8734 8.152 75.7774 8.39733 75.5854 8.6C75.3934 8.792 75.1427 8.888 74.8334 8.888ZM82.0381 19.096C81.2168 19.096 80.4808 18.9147 79.8301 18.552C79.1901 18.1893 78.6835 17.6827 78.3101 17.032C77.9368 16.3813 77.7501 15.624 77.7501 14.76C77.7501 13.896 77.9368 13.144 78.3101 12.504C78.6835 11.8533 79.1901 11.3467 79.8301 10.984C80.4808 10.6213 81.2168 10.44 82.0381 10.44C82.7528 10.44 83.3981 10.6 83.9741 10.92C84.5501 11.24 85.0088 11.72 85.3501 12.36C85.7021 13 85.8781 13.8 85.8781 14.76C85.8781 15.72 85.7075 16.52 85.3661 17.16C85.0355 17.8 84.5821 18.2853 84.0061 18.616C83.4301 18.936 82.7741 19.096 82.0381 19.096ZM82.1661 17.752C82.6995 17.752 83.1795 17.6293 83.6061 17.384C84.0435 17.1387 84.3848 16.792 84.6301 16.344C84.8861 15.8853 85.0141 15.3573 85.0141 14.76C85.0141 14.152 84.8861 13.6293 84.6301 13.192C84.3848 12.744 84.0435 12.3973 83.6061 12.152C83.1795 11.9067 82.6995 11.784 82.1661 11.784C81.6221 11.784 81.1368 11.9067 80.7101 12.152C80.2835 12.3973 79.9421 12.744 79.6861 13.192C79.4301 13.6293 79.3021 14.152 79.3021 14.76C79.3021 15.3573 79.4301 15.8853 79.6861 16.344C79.9421 16.792 80.2835 17.1387 80.7101 17.384C81.1368 17.6293 81.6221 17.752 82.1661 17.752ZM85.0621 19V16.712L85.1581 14.744L84.9981 12.776V7.128H86.5341V19H85.0621ZM94.7044 19V17.208L94.6244 16.872V13.816C94.6244 13.1653 94.4324 12.664 94.0484 12.312C93.675 11.9493 93.1097 11.768 92.3524 11.768C91.851 11.768 91.3604 11.8533 90.8804 12.024C90.4004 12.184 89.995 12.4027 89.6644 12.68L89.0244 11.528C89.4617 11.176 89.9844 10.9093 90.5924 10.728C91.211 10.536 91.8564 10.44 92.5284 10.44C93.691 10.44 94.587 10.7227 95.2164 11.288C95.8457 11.8533 96.1604 12.7173 96.1604 13.88V19H94.7044ZM91.9204 19.096C91.291 19.096 90.7364 18.9893 90.2564 18.776C89.787 18.5627 89.4244 18.2693 89.1684 17.896C88.9124 17.512 88.7844 17.08 88.7844 16.6C88.7844 16.1413 88.891 15.7253 89.1044 15.352C89.3284 14.9787 89.6857 14.68 90.1764 14.456C90.6777 14.232 91.3497 14.12 92.1924 14.12H94.8804V15.224H92.2564C91.4884 15.224 90.971 15.352 90.7044 15.608C90.4377 15.864 90.3044 16.1733 90.3044 16.536C90.3044 16.952 90.4697 17.288 90.8004 17.544C91.131 17.7893 91.5897 17.912 92.1764 17.912C92.7524 17.912 93.2537 17.784 93.6804 17.528C94.1177 17.272 94.4324 16.8987 94.6244 16.408L94.9284 17.464C94.7257 17.9653 94.3684 18.3653 93.8564 18.664C93.3444 18.952 92.699 19.096 91.9204 19.096ZM99.2146 22.2C98.8093 22.2 98.4146 22.1307 98.0306 21.992C97.6466 21.864 97.316 21.672 97.0386 21.416L97.6946 20.264C97.908 20.4667 98.1426 20.6213 98.3986 20.728C98.6546 20.8347 98.9266 20.888 99.2146 20.888C99.588 20.888 99.8973 20.792 100.143 20.6C100.388 20.408 100.617 20.0667 100.831 19.576L101.359 18.408L101.519 18.216L104.847 10.52H106.351L102.239 19.848C101.993 20.4453 101.716 20.9147 101.407 21.256C101.108 21.5973 100.777 21.8373 100.415 21.976C100.052 22.1253 99.652 22.2 99.2146 22.2ZM101.231 19.272L97.3586 10.52H98.9586L102.255 18.072L101.231 19.272Z" fill="black"/>
<path d="M55.554 24.727V25.393H53.844V31H53.025V25.393H51.306V24.727H55.554ZM58.7131 31.081C58.2511 31.081 57.8311 30.976 57.4531 30.766C57.0811 30.556 56.7871 30.259 56.5711 29.875C56.3611 29.485 56.2561 29.035 56.2561 28.525C56.2561 28.021 56.3641 27.577 56.5801 27.193C56.8021 26.803 57.1021 26.506 57.4801 26.302C57.8581 26.092 58.2811 25.987 58.7491 25.987C59.2171 25.987 59.6401 26.092 60.0181 26.302C60.3961 26.506 60.6931 26.8 60.9091 27.184C61.1311 27.568 61.2421 28.015 61.2421 28.525C61.2421 29.035 61.1281 29.485 60.9001 29.875C60.6781 30.259 60.3751 30.556 59.9911 30.766C59.6071 30.976 59.1811 31.081 58.7131 31.081ZM58.7131 30.361C59.0071 30.361 59.2831 30.292 59.5411 30.154C59.7991 30.016 60.0061 29.809 60.1621 29.533C60.3241 29.257 60.4051 28.921 60.4051 28.525C60.4051 28.129 60.3271 27.793 60.1711 27.517C60.0151 27.241 59.8111 27.037 59.5591 26.905C59.3071 26.767 59.0341 26.698 58.7401 26.698C58.4401 26.698 58.1641 26.767 57.9121 26.905C57.6661 27.037 57.4681 27.241 57.3181 27.517C57.1681 27.793 57.0931 28.129 57.0931 28.525C57.0931 28.927 57.1651 29.266 57.3091 29.542C57.4591 29.818 57.6571 30.025 57.9031 30.163C58.1491 30.295 58.4191 30.361 58.7131 30.361ZM66.693 26.068V31H65.874V30.271C65.718 30.523 65.499 30.721 65.217 30.865C64.941 31.003 64.635 31.072 64.299 31.072C63.915 31.072 63.57 30.994 63.264 30.838C62.958 30.676 62.715 30.436 62.535 30.118C62.361 29.8 62.274 29.413 62.274 28.957V26.068H63.084V28.849C63.084 29.335 63.207 29.71 63.453 29.974C63.699 30.232 64.035 30.361 64.461 30.361C64.899 30.361 65.244 30.226 65.496 29.956C65.748 29.686 65.874 29.293 65.874 28.777V26.068H66.693ZM68.8948 26.869C69.0388 26.587 69.2428 26.368 69.5068 26.212C69.7768 26.056 70.1038 25.978 70.4878 25.978V26.824H70.2718C69.3538 26.824 68.8948 27.322 68.8948 28.318V31H68.0758V26.068H68.8948V26.869ZM73.1792 31.081C72.8012 31.081 72.4622 31.018 72.1622 30.892C71.8622 30.76 71.6252 30.58 71.4512 30.352C71.2772 30.118 71.1812 29.851 71.1632 29.551H72.0092C72.0332 29.797 72.1472 29.998 72.3512 30.154C72.5612 30.31 72.8342 30.388 73.1702 30.388C73.4822 30.388 73.7282 30.319 73.9082 30.181C74.0882 30.043 74.1782 29.869 74.1782 29.659C74.1782 29.443 74.0822 29.284 73.8902 29.182C73.6982 29.074 73.4012 28.969 72.9992 28.867C72.6332 28.771 72.3332 28.675 72.0992 28.579C71.8712 28.477 71.6732 28.33 71.5052 28.138C71.3432 27.94 71.2622 27.682 71.2622 27.364C71.2622 27.112 71.3372 26.881 71.4872 26.671C71.6372 26.461 71.8502 26.296 72.1262 26.176C72.4022 26.05 72.7172 25.987 73.0712 25.987C73.6172 25.987 74.0582 26.125 74.3942 26.401C74.7302 26.677 74.9102 27.055 74.9342 27.535H74.1152C74.0972 27.277 73.9922 27.07 73.8002 26.914C73.6142 26.758 73.3622 26.68 73.0442 26.68C72.7502 26.68 72.5162 26.743 72.3422 26.869C72.1682 26.995 72.0812 27.16 72.0812 27.364C72.0812 27.526 72.1322 27.661 72.2342 27.769C72.3422 27.871 72.4742 27.955 72.6302 28.021C72.7922 28.081 73.0142 28.15 73.2962 28.228C73.6502 28.324 73.9382 28.42 74.1602 28.516C74.3822 28.606 74.5712 28.744 74.7272 28.93C74.8892 29.116 74.9732 29.359 74.9792 29.659C74.9792 29.929 74.9042 30.172 74.7542 30.388C74.6042 30.604 74.3912 30.775 74.1152 30.901C73.8452 31.021 73.5332 31.081 73.1792 31.081Z" fill="#FB7D5F"/>
<path d="M83.3498 31L82.5308 30.172C82.2248 30.49 81.8978 30.727 81.5498 30.883C81.2018 31.033 80.8088 31.108 80.3708 31.108C79.9388 31.108 79.5548 31.03 79.2188 30.874C78.8888 30.718 78.6308 30.496 78.4448 30.208C78.2648 29.92 78.1748 29.584 78.1748 29.2C78.1748 28.762 78.2978 28.378 78.5438 28.048C78.7958 27.712 79.1648 27.448 79.6508 27.256C79.4588 27.028 79.3208 26.818 79.2368 26.626C79.1528 26.434 79.1108 26.224 79.1108 25.996C79.1108 25.732 79.1768 25.495 79.3088 25.285C79.4468 25.069 79.6418 24.901 79.8938 24.781C80.1458 24.661 80.4368 24.601 80.7668 24.601C81.0908 24.601 81.3728 24.664 81.6128 24.79C81.8528 24.916 82.0328 25.093 82.1528 25.321C82.2728 25.543 82.3268 25.792 82.3148 26.068H81.4958C81.5018 25.822 81.4328 25.63 81.2888 25.492C81.1448 25.348 80.9588 25.276 80.7308 25.276C80.4908 25.276 80.2958 25.345 80.1458 25.483C80.0018 25.615 79.9298 25.786 79.9298 25.996C79.9298 26.176 79.9778 26.35 80.0738 26.518C80.1758 26.686 80.3438 26.893 80.5778 27.139L82.4498 29.02L82.6118 28.768L83.2238 27.742H84.1058L83.3678 29.02C83.2658 29.2 83.1458 29.389 83.0078 29.587L84.4208 31H83.3498ZM80.3708 30.406C80.6948 30.406 80.9858 30.343 81.2438 30.217C81.5078 30.091 81.7568 29.896 81.9908 29.632L80.1458 27.778C79.3778 28.072 78.9938 28.537 78.9938 29.173C78.9938 29.527 79.1198 29.821 79.3718 30.055C79.6298 30.289 79.9628 30.406 80.3708 30.406ZM91.4485 24.727V25.393H89.7385V31H88.9195V25.393H87.2005V24.727H91.4485ZM93.2757 26.869C93.4197 26.587 93.6237 26.368 93.8877 26.212C94.1577 26.056 94.4847 25.978 94.8687 25.978V26.824H94.6527C93.7347 26.824 93.2757 27.322 93.2757 28.318V31H92.4567V26.068H93.2757V26.869ZM95.5081 28.516C95.5081 28.012 95.6101 27.571 95.8141 27.193C96.0181 26.809 96.2971 26.512 96.6511 26.302C97.0111 26.092 97.4101 25.987 97.8481 25.987C98.2801 25.987 98.6551 26.08 98.9731 26.266C99.2911 26.452 99.5281 26.686 99.6841 26.968V26.068H100.512V31H99.6841V30.082C99.5221 30.37 99.2791 30.61 98.9551 30.802C98.6371 30.988 98.2651 31.081 97.8391 31.081C97.4011 31.081 97.0051 30.973 96.6511 30.757C96.2971 30.541 96.0181 30.238 95.8141 29.848C95.6101 29.458 95.5081 29.014 95.5081 28.516ZM99.6841 28.525C99.6841 28.153 99.6091 27.829 99.4591 27.553C99.3091 27.277 99.1051 27.067 98.8471 26.923C98.5951 26.773 98.3161 26.698 98.0101 26.698C97.7041 26.698 97.4251 26.77 97.1731 26.914C96.9211 27.058 96.7201 27.268 96.5701 27.544C96.4201 27.82 96.3451 28.144 96.3451 28.516C96.3451 28.894 96.4201 29.224 96.5701 29.506C96.7201 29.782 96.9211 29.995 97.1731 30.145C97.4251 30.289 97.7041 30.361 98.0101 30.361C98.3161 30.361 98.5951 30.289 98.8471 30.145C99.1051 29.995 99.3091 29.782 99.4591 29.506C99.6091 29.224 99.6841 28.897 99.6841 28.525ZM103.732 30.244L105.262 26.068H106.135L104.2 31H103.246L101.311 26.068H102.193L103.732 30.244ZM111.441 28.345C111.441 28.501 111.432 28.666 111.414 28.84H107.472C107.502 29.326 107.667 29.707 107.967 29.983C108.273 30.253 108.642 30.388 109.074 30.388C109.428 30.388 109.722 30.307 109.956 30.145C110.196 29.977 110.364 29.755 110.46 29.479H111.342C111.21 29.953 110.946 30.34 110.55 30.64C110.154 30.934 109.662 31.081 109.074 31.081C108.606 31.081 108.186 30.976 107.814 30.766C107.448 30.556 107.16 30.259 106.95 29.875C106.74 29.485 106.635 29.035 106.635 28.525C106.635 28.015 106.737 27.568 106.941 27.184C107.145 26.8 107.43 26.506 107.796 26.302C108.168 26.092 108.594 25.987 109.074 25.987C109.542 25.987 109.956 26.089 110.316 26.293C110.676 26.497 110.952 26.779 111.144 27.139C111.342 27.493 111.441 27.895 111.441 28.345ZM110.595 28.174C110.595 27.862 110.526 27.595 110.388 27.373C110.25 27.145 110.061 26.974 109.821 26.86C109.587 26.74 109.326 26.68 109.038 26.68C108.624 26.68 108.27 26.812 107.976 27.076C107.688 27.34 107.523 27.706 107.481 28.174H110.595ZM113.341 24.34V31H112.522V24.34H113.341Z" fill="#0287A8"/>
</g>
<defs>
<filter id="filter0_d_1167_213" x="0" y="0" width="117.341" height="48" filterUnits="userSpaceOnUse" color-interpolation-filters="sRGB">
<feFlood flood-opacity="0" result="BackgroundImageFix"/>
<feColorMatrix in="SourceAlpha" type="matrix" values="0 0 0 0 0 0 0 0 0 0 0 0 0 0 0 0 0 0 127 0" result="hardAlpha"/>
<feOffset dy="4"/>
<feGaussianBlur stdDeviation="2"/>
<feComposite in2="hardAlpha" operator="out"/>
<feColorMatrix type="matrix" values="0 0 0 0 0 0 0 0 0 0 0 0 0 0 0 0 0 0 0.25 0"/>
<feBlend mode="normal" in2="BackgroundImageFix" result="effect1_dropShadow_1167_213"/>
<feBlend mode="normal" in="SourceGraphic" in2="effect1_dropShadow_1167_213" result="shape"/>
</filter>
</defs>
</svg>
