<svg width="49" height="48" viewBox="0 0 49 48" fill="none" xmlns="http://www.w3.org/2000/svg">
<g filter="url(#filter0_d_1216_190)">
<path d="M34.5464 16.3168L35.0481 16.1052L35.2081 15.4279L35.3751 14.7535L36.7734 14.158C37.7216 13.7579 38.1852 13.5798 38.1998 13.614C38.2191 13.6581 38.6891 18.0587 38.6962 18.2651C38.6974 18.3225 38.8228 18.2872 39.2945 18.0883L39.8905 17.8366L40.3248 15.1681L40.7614 12.5042L42.3549 11.8031C44.0772 11.0476 44.1048 11.0296 44.2349 10.6498C44.3251 10.397 44.3193 10.2196 44.2114 9.96847C44.0778 9.65883 43.7801 9.43035 43.4461 9.3915C43.1917 9.35961 43.1917 9.35962 41.6024 10.0299L40.0183 10.6985L37.7316 9.13753L35.4501 7.57422L34.864 7.82123C34.3278 8.04738 34.2821 8.07811 34.3389 8.14132C34.3753 8.18423 35.0703 8.99428 35.8849 9.94526C36.6995 10.8962 37.3758 11.7028 37.3887 11.7324C37.4098 11.7817 37.1033 11.9284 36.0309 12.3807L34.6454 12.9652L33.9955 12.6004L33.3503 12.234L32.8639 12.4393C32.422 12.626 32.3816 12.6544 32.4378 12.7176C32.4742 12.7605 32.7906 13.1554 33.1487 13.5909L33.7939 14.3928L33.917 15.3861C33.9826 15.9335 34.0377 16.4154 34.0424 16.4536C34.0436 16.5116 34.159 16.4803 34.5464 16.3168Z" fill="#0287A8"/>
<path d="M33.0293 15.3026L31.9803 15.8651C28.13 17.9642 25.2818 19.9415 24.0101 21.4259C23.8695 21.5941 23.7464 21.7507 23.6409 21.9014C23.4358 21.6173 23.1721 21.4027 22.8029 21.4897C22.5216 21.5535 22.3223 21.7274 22.1582 21.9478C23.1838 20.359 25.8737 18.2367 29.853 15.894C30.5914 15.4591 32.4433 14.4154 32.5956 14.3516C32.6308 14.3516 32.7304 14.5314 32.8359 14.8155L33.0293 15.3026Z" fill="#0287A8"/>
<path d="M22.8026 0.0116242C21.8357 0.139194 20.9507 0.301555 20.0658 0.730652C19.3977 1.05537 18.7414 1.49607 18.2374 2.04694C17.8271 2.49343 17.4462 2.96892 17.1708 3.51399C16.7312 4.38378 16.5613 5.28836 16.5613 6.25093C16.5613 6.55826 16.5378 6.86558 16.5964 7.16711C16.7547 8.03111 17.1122 8.85451 17.4638 9.64892C17.9854 10.8319 18.6007 11.9684 19.2219 13.0991C20.0072 14.5256 20.857 15.9173 21.7067 17.3089C21.9763 17.7496 22.2928 18.5904 22.9433 18.5266C23.5528 18.4629 23.7403 17.912 24.045 17.4713C24.7835 16.3985 25.4691 15.2678 26.1431 14.1487C26.9577 12.7918 27.7664 11.4291 28.4462 10.0027C28.8447 9.16763 29.2726 8.28045 29.4249 7.35847C29.466 7.10333 29.4484 6.84239 29.4601 6.58145C29.507 5.5377 29.2784 4.48815 28.7803 3.56037C28.4814 3.00951 28.1063 2.51662 27.6668 2.06433C27.1276 1.51346 26.4771 1.06117 25.7797 0.724854C25.0882 0.394333 24.3674 0.162388 23.6055 0.0522144C23.3418 0.02902 23.0664 -0.0231675 22.8026 0.0116242Z" fill="#1D4ED8"/>
<path d="M10.3271 6.4714C9.82307 6.53518 9.33079 6.54098 8.83851 6.68015C7.36754 7.09185 6.08411 7.95584 5.14644 9.15036C4.59556 9.85779 4.28495 10.7334 4.13258 11.6032C3.73407 13.8531 4.36114 16.2711 6.17201 17.7903C6.71703 18.2484 7.39684 18.6891 8.07665 18.9211C9.18428 19.298 10.3915 19.3618 11.546 19.4429C13.2866 19.5589 15.0447 19.5705 16.7911 19.5125C17.6819 19.4835 18.5727 19.4951 19.4635 19.4429C19.7624 19.4255 20.0788 19.4777 20.3777 19.4197C20.8876 19.3154 21.1982 18.8109 21.0224 18.318C20.9052 17.9875 20.6707 17.6744 20.5066 17.3612C20.1023 16.6074 19.692 15.8536 19.276 15.1056C18.2914 13.337 17.2717 11.5452 16.0644 9.91577C15.3963 9.01699 14.7341 8.04862 13.7437 7.46876C12.8939 6.97008 12.0325 6.60477 11.042 6.51199C10.8018 6.48299 10.5556 6.43661 10.3271 6.4714Z" fill="#0287A8"/>
<path d="M14.13 20.4749C13.8487 20.5097 13.5498 20.4807 13.2685 20.4865C12.8524 20.4923 12.4363 20.5155 12.0202 20.5329C11.2818 20.5677 10.5434 20.6315 9.81082 20.7359C9.21892 20.817 8.61529 20.8924 8.05269 21.1012C7.40218 21.3389 6.78684 21.739 6.24768 22.1623C5.83745 22.4813 5.47996 22.8756 5.17522 23.2989C4.13206 24.7659 3.78629 26.6505 4.1262 28.4016C4.25513 29.0685 4.44852 29.7643 4.78843 30.3616C5.04043 30.7965 5.40377 31.1908 5.76126 31.5445C7.15018 32.9304 9.16031 33.7422 11.1411 33.5044C12.2136 33.3768 13.3329 32.9246 14.1768 32.2577C15.1204 31.5155 15.8295 30.4427 16.4917 29.457C17.5232 27.9204 18.4784 26.3315 19.3692 24.7137C19.8204 23.8903 20.2658 23.0611 20.723 22.2377C20.9515 21.8202 21.2211 21.4143 20.9222 20.9562C20.5823 20.4285 19.715 20.5619 19.1641 20.5619C18.4022 20.5619 17.6404 20.4923 16.8785 20.4865C16.5445 20.4807 16.2046 20.4981 15.8705 20.4807C15.4837 20.4633 15.0911 20.4633 14.7043 20.4691C14.5168 20.4749 14.3234 20.4517 14.13 20.4749Z" fill="#00C3C7"/>
<path d="M41.515 29.5033C40.3136 32.7795 36.0062 34.5481 32.8592 32.9129C32.0797 32.507 31.4175 32.0431 30.8549 31.3589C30.7201 31.1965 30.4095 30.9356 30.3802 30.721C30.2571 30.663 30.1809 30.5123 30.1048 30.4079C29.9114 30.147 29.718 29.886 29.5421 29.6135C28.9151 28.6625 28.3115 27.7057 27.7254 26.7374C27.4793 26.3315 27.239 25.9198 27.0046 25.5139C26.8522 25.2587 26.7057 25.0036 26.565 24.7543C26.1783 24.07 25.8032 23.38 25.4516 22.6841C25.2113 22.2087 24.7014 21.6404 24.9417 21.0837C25.2171 20.4343 25.9204 20.6256 26.4771 20.5735C27.2156 20.5039 27.9657 20.5329 28.7041 20.5155C29.5421 20.4923 30.3861 20.4575 31.23 20.4749C32.7302 20.5097 34.2305 20.5097 35.7249 20.6836C36.4516 20.7706 37.19 20.8576 37.8816 21.0953C38.2742 21.2345 38.6375 21.449 38.9892 21.6694C39.5635 22.0231 40.0851 22.4464 40.5129 22.9741C40.9641 23.5191 41.304 24.1396 41.5385 24.8006L41.6967 25.3109L41.7143 25.3631L41.7201 25.3863C42.0659 26.7374 41.9956 28.1986 41.515 29.5033Z" fill="#FB7D5F"/>
<path d="M29.4547 33.4118C29.4782 34.3395 29.3258 35.2093 28.9625 36.0733C28.7456 36.5836 28.4233 37.0475 28.0775 37.4824C27.638 38.0275 27.093 38.4971 26.4952 38.8741C25.7509 39.3437 24.9422 39.6743 24.0807 39.8714C21.5431 40.4513 18.6598 39.0074 17.3588 36.8329C16.6907 35.7138 16.4446 34.3685 16.5676 33.0812C16.6555 32.1419 17.0892 31.2141 17.4643 30.3617C18.1617 28.7961 18.9763 27.2768 19.8495 25.8098C20.4765 24.7544 21.0978 23.6991 21.7307 22.6495C21.8596 22.435 21.9768 22.203 22.1292 21.9943C22.1351 21.9769 22.1468 21.9653 22.1585 21.9479C22.3226 21.7276 22.5218 21.5536 22.8031 21.4898C23.1724 21.4028 23.4361 21.6174 23.6412 21.9015C23.8053 22.1161 23.9342 22.3712 24.0573 22.5568C24.5085 23.2236 24.9363 23.9078 25.3583 24.5979C25.5341 24.8762 25.7041 25.1545 25.874 25.4387C26.1026 25.8098 26.3253 26.1809 26.5538 26.5462C27.2864 27.7349 27.9662 28.9816 28.5581 30.2457C28.9156 31.0111 29.2848 31.8171 29.4196 32.6521C29.4606 32.9073 29.4489 33.1566 29.4547 33.4118Z" fill="#0287A8"/>
</g>
<defs>
<filter id="filter0_d_1216_190" x="0" y="0" width="48.2979" height="48" filterUnits="userSpaceOnUse" color-interpolation-filters="sRGB">
<feFlood flood-opacity="0" result="BackgroundImageFix"/>
<feColorMatrix in="SourceAlpha" type="matrix" values="0 0 0 0 0 0 0 0 0 0 0 0 0 0 0 0 0 0 127 0" result="hardAlpha"/>
<feOffset dy="4"/>
<feGaussianBlur stdDeviation="2"/>
<feComposite in2="hardAlpha" operator="out"/>
<feColorMatrix type="matrix" values="0 0 0 0 0 0 0 0 0 0 0 0 0 0 0 0 0 0 0.25 0"/>
<feBlend mode="normal" in2="BackgroundImageFix" result="effect1_dropShadow_1216_190"/>
<feBlend mode="normal" in="SourceGraphic" in2="effect1_dropShadow_1216_190" result="shape"/>
</filter>
</defs>
</svg>
